<svg version="1.1" xmlns="http://www.w3.org/2000/svg" xmlns:xlink="http://www.w3.org/1999/xlink" width="934.27" height="448" viewBox="0 0 934.27 448">
  <g fill="none" stroke="none" stroke-width="1" stroke-linecap="butt" stroke-linejoin="miter" stroke-dasharray="" stroke-dashoffset="0">
    <rect x="0" y="0" width="934.27" height="448" fill="none" fill-rule="nonzero"/>
    <circle cx="192" cy="224" r="96" fill="#ffca28" fill-rule="nonzero"/>
    <g fill="#3c4043" fill-rule="evenodd">
      <path d="M192,228.66667l-42,18.66667v-18.66667l42,-18.66667l42,18.66667v16.33333v-3.5v5.83333zM192,177.33333l42,18.66667v18.66667l-42,-18.66667l-42,18.66667v-18.66667zM207.75,245l21,9.33333l-36.75,16.33333v-18.66667z"/>
    </g>
    <g fill="#5f6368" fill-rule="nonzero">
      <path d="M347.77,232.7v39.3h-11.77v-91.65h53.5v11.27h-41.73v30.08h37.63v11z"/>
      <path d="M411.64,193.54c-1.62,1.62 -3.58,2.43 -5.88,2.43c-2.30667,0 -4.27,-0.81 -5.89,-2.43c-1.62,-1.62667 -2.43,-3.59 -2.43,-5.89c0,-2.30667 0.81,-4.27 2.43,-5.89c1.62,-1.62 3.58333,-2.43 5.89,-2.43c2.3,0 4.26,0.81 5.88,2.43c1.62667,1.62 2.44,3.58333 2.44,5.89c0,2.3 -0.81333,4.26333 -2.44,5.89zM411.64,209.28v62.72h-11.77v-62.72z"/>
      <path d="M437.5,237.7v34.3h-11.78v-62.72h11.27v10.24h0.51c1.19333,-3.41333 3.64667,-6.23 7.36,-8.45c3.71333,-2.22 7.32,-3.33 10.82,-3.33c3.49333,0 6.43667,0.51333 8.83,1.54v0l-4.48,11.01c-1.54,-0.6 -3.63,-0.9 -6.27,-0.9v0c-4.26667,0 -8.04333,1.68667 -11.33,5.06c-3.28667,3.36667 -4.93,7.78333 -4.93,13.25z"/>
      <path d="M496.76,274.05v0c-9.46667,0 -17.16667,-3.15667 -23.1,-9.47c-5.93333,-6.32 -8.9,-14.3 -8.9,-23.94v0c0,-9.13333 2.88,-16.98333 8.64,-23.55c5.76,-6.57333 13.12,-9.86 22.08,-9.86v0c9.30667,0 16.75333,3.03 22.34,9.09c5.58667,6.06 8.38,14.16667 8.38,24.32v0l-0.12,2.18h-49.54c0.34,6.31333 2.45333,11.30333 6.34,14.97c3.88,3.67333 8.42333,5.51 13.63,5.51v0c8.44667,0 14.16333,-3.58667 17.15,-10.76v0l10.5,4.36c-2.05333,4.86 -5.42667,8.93333 -10.12,12.22c-4.69333,3.28667 -10.45333,4.93 -17.28,4.93zM477.31,233.09h36.35c-0.25333,-3.58667 -1.89667,-7 -4.93,-10.24c-3.02667,-3.24667 -7.52667,-4.87 -13.5,-4.87v0c-4.35333,0 -8.13,1.36667 -11.33,4.1c-3.2,2.73333 -5.39667,6.40333 -6.59,11.01z"/>
      <path d="M558.97,274.05v0c-6.99333,0 -12.77333,-1.70667 -17.34,-5.12c-4.56667,-3.41333 -7.91667,-7.68 -10.05,-12.8v0l10.5,-4.35c3.32667,7.84667 9,11.77 17.02,11.77v0c3.66667,0 6.67333,-0.81 9.02,-2.43c2.34667,-1.62 3.52,-3.75333 3.52,-6.4v0c0,-4.09333 -2.85667,-6.86667 -8.57,-8.32v0l-12.67,-3.07c-4.01333,-1.02667 -7.81333,-2.97 -11.4,-5.83c-3.58,-2.85333 -5.37,-6.71333 -5.37,-11.58v0c0,-5.54667 2.45333,-10.04667 7.36,-13.5c4.90667,-3.46 10.73,-5.19 17.47,-5.19v0c5.54667,0 10.49667,1.26 14.85,3.78c4.35333,2.51333 7.46667,6.11667 9.34,10.81v0l-10.24,4.23c-2.3,-5.54667 -7.07667,-8.32 -14.33,-8.32v0c-3.5,0 -6.44667,0.72333 -8.84,2.17c-2.38667,1.45333 -3.58,3.41667 -3.58,5.89v0c0,3.58667 2.77333,6.02 8.32,7.3v0l12.42,2.94c5.88667,1.36667 10.23667,3.71333 13.05,7.04c2.82,3.32667 4.23,7.08333 4.23,11.27v0c0,5.62667 -2.30667,10.32 -6.92,14.08c-4.60667,3.75333 -10.53667,5.63 -17.79,5.63z"/>
      <path d="M619.13,273.02v0c-6.56667,0 -11.58,-1.74667 -15.04,-5.24c-3.45333,-3.5 -5.18,-8.45 -5.18,-14.85v0v-32.9h-11.01v-10.75h11.01v-19.2h11.77v19.2h15.36v10.75h-15.36v32c0,6.82667 2.81667,10.24 8.45,10.24v0c2.13333,0 3.92667,-0.34 5.38,-1.02v0l4.09,10.11c-2.56,1.10667 -5.71667,1.66 -9.47,1.66z"/>
      <path d="M640.89,216.77c6.06,-6.36 13.78333,-9.54 23.17,-9.54c9.38667,0 17.11,3.18 23.17,9.54c6.06,6.35333 9.09,14.31 9.09,23.87c0,9.56 -3.03,17.51667 -9.09,23.87c-6.06,6.36 -13.78333,9.54 -23.17,9.54c-9.38667,0 -17.11,-3.18 -23.17,-9.54c-6.06,-6.35333 -9.09,-14.31 -9.09,-23.87c0,-9.56 3.03,-17.51667 9.09,-23.87zM649.66,257.09c4.05333,4.14 8.85333,6.21 14.4,6.21c5.54667,0 10.34667,-2.07 14.4,-6.21c4.05333,-4.14 6.08,-9.62333 6.08,-16.45c0,-6.82667 -2.02667,-12.31 -6.08,-16.45c-4.05333,-4.14 -8.85333,-6.21 -14.4,-6.21c-5.54667,0 -10.34667,2.07 -14.4,6.21c-4.05333,4.14 -6.08,9.62333 -6.08,16.45c0,6.82667 2.02667,12.31 6.08,16.45z"/>
      <path d="M717.56,237.7v34.3h-11.77v-62.72h11.26v10.24h0.51c1.2,-3.41333 3.65333,-6.23 7.36,-8.45c3.71333,-2.22 7.32,-3.33 10.82,-3.33c3.5,0 6.44333,0.51333 8.83,1.54v0l-4.48,11.01c-1.53333,-0.6 -3.62333,-0.9 -6.27,-0.9v0c-4.26667,0 -8.04333,1.68667 -11.33,5.06c-3.28667,3.36667 -4.93,7.78333 -4.93,13.25z"/>
      <path d="M776.83,274.05v0c-9.47333,0 -17.17667,-3.15667 -23.11,-9.47c-5.92667,-6.32 -8.89,-14.3 -8.89,-23.94v0c0,-9.13333 2.88,-16.98333 8.64,-23.55c5.76,-6.57333 13.12,-9.86 22.08,-9.86v0c9.3,0 16.74333,3.03 22.33,9.09c5.59333,6.06 8.39,14.16667 8.39,24.32v0l-0.13,2.18h-49.54c0.34667,6.31333 2.46,11.30333 6.34,14.97c3.88,3.67333 8.42333,5.51 13.63,5.51v0c8.44667,0 14.16333,-3.58667 17.15,-10.76v0l10.5,4.36c-2.04667,4.86 -5.41667,8.93333 -10.11,12.22c-4.69333,3.28667 -10.45333,4.93 -17.28,4.93zM757.37,233.09h36.35c-0.25333,-3.58667 -1.89333,-7 -4.92,-10.24c-3.03333,-3.24667 -7.53667,-4.87 -13.51,-4.87v0c-4.35333,0 -8.13,1.36667 -11.33,4.1c-3.2,2.73333 -5.39667,6.40333 -6.59,11.01z"/>
    </g>
  </g>
</svg>
